# xmcd CD database file
#
# Track frame offsets:
#	150
#	15727
#	33380
#	52187
#	75493
#	99466
#	117667
#	135704
#	151229
#	170838
#	189663
#	203007
#	221061
#	236560
#
# Disc length: 3389 seconds
#
# Revision: 3
# Processed by: cddbd v1.5.2PL0 Copyright (c) Steve Scherf et al.
# Submitted via: CDex 1.70beta2
#
DISCID=c50d3b0e
DTITLE=Madeleine Peyroux - Half The Perfect World (Japan Edition)
DYEAR=2006
DGENRE=Jazz
TTITLE0=I'm All Right
TTITLE1=The Summer Wind
TTITLE2=Blue Alert
TTITLE3=Everybody Talk'n
TTITLE4=River (featuring K.D.Lang)
TTITLE5=A Little Bit
TTITLE6=Once In A While
TTITLE7=(Looking For)The Heart Of Saturday Night
TTITLE8=Half The Perfect World
TTITLE9=La Javanaise
TTITLE10=California Rain
TTITLE11=Smile
TTITLE12=Crazy To Love You
TTITLE13=Dance Me To The End Of Love
EXTD=YEAR: 2006
EXTT0=
EXTT1=
EXTT2=
EXTT3=
EXTT4=
EXTT5=
EXTT6=
EXTT7=
EXTT8=
EXTT9=
EXTT10=
EXTT11=
EXTT12=
EXTT13=
PLAYORDER=
